<?xml version="1.0" encoding="UTF-8"?>
<svg version="1.1" xmlns="http://www.w3.org/2000/svg" width="2466" height="795">
<path d="M0 0 C813.78 0 1627.56 0 2466 0 C2466 262.35 2466 524.7 2466 795 C1652.22 795 838.44 795 0 795 C0 532.65 0 270.3 0 0 Z " fill="#141414" transform="translate(0,0)"/>
<path d="M0 0 C25.59048703 -0.74301046 51.53031333 1.09472235 76.00439453 9.10302734 C76.77074219 9.34891602 77.53708984 9.59480469 78.32666016 9.84814453 C99.87289342 16.8917655 118.48992252 27.52333677 135.00439453 43.10302734 C135.64248047 43.68826172 136.28056641 44.27349609 136.93798828 44.87646484 C141.74030601 49.43278411 145.39520462 54.572278 149.00439453 60.10302734 C149.77783203 61.25931641 149.77783203 61.25931641 150.56689453 62.43896484 C160.04211149 77.29334143 164.06760692 94.27777445 166.75439453 111.47802734 C166.94618286 112.68978638 166.94618286 112.68978638 167.1418457 113.92602539 C167.7500367 118.11231404 168.06564205 122.16924145 168.03662109 126.40234375 C168.03196838 127.28725494 168.02731567 128.17216614 168.02252197 129.08389282 C168.01653992 129.75020721 168.01055786 130.41652161 168.00439453 131.10302734 C156.93904595 131.12615017 145.87370308 131.14394212 134.8083353 131.15483952 C129.67079887 131.16006848 124.53327891 131.16716636 119.39575195 131.1784668 C114.44208043 131.18929522 109.4884248 131.19530408 104.53474236 131.19790459 C102.64041837 131.19975892 100.74609529 131.20337968 98.85177803 131.2087574 C96.20805067 131.21596724 93.56438983 131.21701831 90.9206543 131.21655273 C90.1294368 131.22014801 89.3382193 131.22374329 88.52302551 131.22744751 C83.11844669 131.21707951 83.11844669 131.21707951 82.00439453 130.10302734 C81.6912365 128.26428191 81.38342276 126.42443669 81.10522461 124.58007812 C78.5887268 108.15717177 72.44279598 94.07144943 58.75048828 83.88037109 C36.9576662 69.77548625 7.00366354 67.94690788 -18.04248047 72.41943359 C-31.85288383 75.61628622 -45.86011118 81.42567953 -53.71435547 93.81396484 C-59.63800341 104.2362322 -60.31869914 115.19338738 -58.56982422 126.97021484 C-55.88395242 136.49434919 -47.72654343 141.41316029 -39.61279297 146.19677734 C-21.00079303 156.32493341 1.42249319 160.53989349 21.79711914 165.55249023 C31.27552077 167.89253799 40.65363651 170.48075014 50.01855469 173.23583984 C52.83850698 174.05484807 55.66355904 174.85393172 58.49104309 175.64649963 C97.90495846 186.69761984 148.20563444 201.7150169 170.44970703 239.23193359 C186.29381376 268.49177894 187.87413389 302.41320386 178.62255859 334.12841797 C169.0210281 364.79870967 148.37627618 388.20816415 120.14892578 403.16943359 C96.07939414 415.64327388 71.82212963 421.71730705 45.00439453 425.10302734 C43.75674316 425.27954834 42.5090918 425.45606934 41.22363281 425.63793945 C36.66327769 426.20349457 32.13846681 426.28196781 27.54736328 426.30615234 C26.20891609 426.31674179 26.20891609 426.31674179 24.84342957 426.32754517 C-22.40552688 426.61581872 -72.7912536 422.1476431 -110.99560547 391.10302734 C-111.50784668 390.6947168 -112.02008789 390.28640625 -112.54785156 389.86572266 C-141.04715934 367.06965613 -156.5014837 336.05600152 -160.99560547 300.10302734 C-160.99560547 293.83302734 -160.99560547 287.56302734 -160.99560547 281.10302734 C-131.62560547 281.10302734 -102.25560547 281.10302734 -71.99560547 281.10302734 C-71.00560547 290.01302734 -71.00560547 290.01302734 -69.99560547 299.10302734 C-69.20182876 302.42066992 -68.46382235 305.33165336 -67.30810547 308.47802734 C-67.04610352 309.21859375 -66.78410156 309.95916016 -66.51416016 310.72216797 C-60.1468999 328.02728379 -49.38969229 339.07619576 -32.99560547 347.10302734 C-6.15347636 359.33004701 31.56928931 360.89295913 59.31689453 350.52490234 C73.46066047 344.92204234 84.14628222 336.56037372 90.96142578 322.79052734 C94.82479122 312.83548832 96.61945917 299.01871558 92.31689453 288.91552734 C91.58628086 287.62115296 90.81706942 286.34751958 90.00439453 285.10302734 C89.66537109 284.48427734 89.32634766 283.86552734 88.97705078 283.22802734 C79.70625423 267.91966578 51.54574018 262.34446912 35.56689453 257.22802734 C34.64529541 256.92999207 33.72369629 256.63195679 32.77416992 256.32489014 C16.3239982 251.00931286 -0.25162117 246.27179107 -16.93473816 241.75160217 C-54.81195946 231.48297384 -94.4395647 220.60686328 -122.99560547 192.10302734 C-124.06875 191.04728516 -124.06875 191.04728516 -125.16357422 189.97021484 C-135.00293734 179.66934313 -138.90396144 166.41999028 -142.99560547 153.10302734 C-143.36169922 151.93384766 -143.72779297 150.76466797 -144.10498047 149.56005859 C-146.26040852 141.19359443 -146.21272243 132.81537229 -146.23583984 124.22436523 C-146.24547554 122.06958344 -146.27654049 119.91578669 -146.30810547 117.76123047 C-146.53076465 88.61520689 -134.54029744 63.41523867 -114.80810547 42.47802734 C-88.65101519 17.5665128 -53.49891037 4.79949735 -17.99560547 1.10302734 C-16.95146484 0.99216797 -15.90732422 0.88130859 -14.83154297 0.76708984 C-9.89051761 0.34681872 -4.95402301 0.17038286 0 0 Z " fill="#BBEBF4" transform="translate(361.99560546875,180.89697265625)"/>
<path d="M0 0 C13.48156078 -0.46457627 26.96120322 -0.81932046 40.4491539 -1.03624344 C46.71361769 -1.14039676 52.9725868 -1.28145174 59.23388672 -1.50878906 C65.28392022 -1.72706605 71.32869433 -1.84585572 77.38236237 -1.89754486 C79.68430715 -1.93434151 81.98598105 -2.00622029 84.28566742 -2.11460114 C101.80543343 -2.90699733 101.80543343 -2.90699733 107.10054016 1.91145325 C110.85635628 6.66706889 113.39290915 11.87945165 115.79595852 17.41365719 C117.72730502 21.56228846 120.22559496 25.31823826 122.75 29.125 C123.2958374 29.98472412 123.8416748 30.84444824 124.40405273 31.73022461 C124.84692627 32.42639893 125.2897998 33.12257324 125.74609375 33.83984375 C129.49103129 39.75455011 133.15111869 45.72083709 136.8125 51.6875 C142.60984737 61.13334439 148.45503328 70.54725115 154.34155273 79.93774414 C159.06078816 87.47497159 163.72444423 95.04532883 168.375 102.625 C176.2305043 117.02487908 176.2305043 117.02487908 186 130 C186.51046875 129.13761719 187.0209375 128.27523437 187.546875 127.38671875 C191.78673304 120.25600323 196.11353175 113.18975659 200.5625 106.1875 C205.44580248 98.50114376 210.23819419 90.76217186 215 83 C220.11316152 74.66884476 225.2638072 66.3652215 230.4987793 58.11010742 C234.46182341 51.85984731 238.39232141 45.58972884 242.3125 39.3125 C243.24400879 37.82109497 243.24400879 37.82109497 244.19433594 36.29956055 C246.12990024 33.199921 248.06500698 30.09999621 250 27 C252.77027152 22.56214883 255.54121095 18.12471586 258.3125 13.6875 C258.95292236 12.66116455 259.59334473 11.6348291 260.25317383 10.57739258 C261.1429895 9.15269653 261.1429895 9.15269653 262.05078125 7.69921875 C262.83449097 6.44371216 262.83449097 6.44371216 263.6340332 5.1628418 C264.73104098 3.42586379 265.86042941 1.70935588 267 0 C268.79221535 -0.36914349 268.79221535 -0.36914349 270.99893188 -0.36076355 C272.25255775 -0.36694954 272.25255775 -0.36694954 273.5315094 -0.3732605 C274.90930824 -0.35708176 274.90930824 -0.35708176 276.31494141 -0.34057617 C277.28083694 -0.34101425 278.24673248 -0.34145233 279.24189758 -0.34190369 C282.44532246 -0.339808 285.64822868 -0.31644007 288.8515625 -0.29296875 C291.0683056 -0.28737557 293.28505241 -0.28310416 295.50180054 -0.28010559 C301.34462673 -0.26863494 307.18723024 -0.2391486 313.02996826 -0.20599365 C318.98869819 -0.1753406 324.947464 -0.16161045 330.90625 -0.14648438 C342.60426466 -0.11428108 354.30211384 -0.06305791 366 0 C364.89971476 1.73336719 363.79885246 3.46636809 362.69775391 5.19921875 C362.08477448 6.16432373 361.47179504 7.12942871 360.84024048 8.1237793 C358.07134227 12.4514541 355.2297993 16.72867352 352.375 21 C351.71822266 21.98419922 351.06144531 22.96839844 350.38476562 23.98242188 C342.48382216 35.80234527 334.52109482 47.58077105 326.56628418 59.36447144 C319.55836002 69.7457056 312.55580595 80.12955863 305.625 90.5625 C298.61882867 101.10509288 291.52725612 111.5888468 284.42944336 122.06982422 C276.80745695 133.32510259 269.19759162 144.58850292 261.59628296 155.85775757 C260.34240315 157.71661579 259.08835957 159.57536354 257.83413696 161.43399048 C257.23636444 162.31984833 256.63859192 163.20570618 256.02270508 164.1184082 C255.43649887 164.98678818 254.85029266 165.85516815 254.24632263 166.74986267 C253.10360545 168.44578931 251.96337373 170.14339371 250.82582092 171.8427887 C248.21593859 175.73943975 245.58132408 179.60872928 242.85400391 183.42431641 C242.37316849 184.10903519 241.89233307 184.79375397 241.39692688 185.4992218 C240.50705358 186.76407433 239.60309953 188.01918864 238.68254089 189.2618866 C237.33786148 191.10449256 237.33786148 191.10449256 236 194 C236.80936341 197.87829104 239.10177615 200.86098001 241.33203125 204.1015625 C242.03352295 205.12733398 242.73501465 206.15310547 243.45776367 207.20996094 C243.83887299 207.7626062 244.2199823 208.31525146 244.61264038 208.88464355 C246.28637497 211.31233988 247.94891753 213.7476293 249.61219788 216.18249512 C250.53824149 217.53806182 251.46480329 218.89327465 252.39183044 220.24816895 C258.86810177 229.71871828 265.27460678 239.23648128 271.6875 248.75 C272.32184967 249.69063293 272.95619934 250.63126587 273.60977173 251.60040283 C281.01891967 262.58724808 288.41046277 273.58475865 295.74243164 284.62329102 C303.85631971 296.82044947 312.07235914 308.9492745 320.2734375 321.08789062 C326.19292734 329.85249643 332.09424974 338.62833071 337.953125 347.43359375 C342.79659295 354.71245591 347.6703105 361.97001137 352.5703125 369.2109375 C353.50534103 370.59328331 353.50534103 370.59328331 354.45925903 372.0035553 C356.9970385 375.75470248 359.53537774 379.50546202 362.07714844 383.25390625 C363.97297201 386.05055517 365.86563637 388.84931994 367.7578125 391.6484375 C368.3275882 392.48700287 368.89736389 393.32556824 369.48440552 394.18954468 C370.01951752 394.98212677 370.55462952 395.77470886 371.10595703 396.59130859 C371.5700296 397.27631439 372.03410217 397.96132019 372.51223755 398.66708374 C374.45723047 401.71696957 376.2225929 404.84948487 378 408 C364.17024951 408.23391269 350.34080695 408.40942643 336.50948238 408.51812172 C330.08675941 408.57029348 323.66536593 408.64104424 317.2434082 408.75439453 C311.04467798 408.86311899 304.8472256 408.92285629 298.64761543 408.94877243 C296.28356365 408.96723825 293.91958123 409.00330016 291.55607414 409.05730057 C273.01542573 409.46402886 273.01542573 409.46402886 268.05976868 405.86418152 C266.2147919 403.27415272 265.10725758 400.96704255 264 398 C263.06981885 396.49147452 262.11182943 394.99932414 261.11328125 393.53515625 C260.17717988 392.04584405 259.2436519 390.55491173 258.3125 389.0625 C257.26699454 387.39709307 256.22141964 385.73172972 255.17578125 384.06640625 C254.64936035 383.22609863 254.12293945 382.38579102 253.58056641 381.52001953 C251.06363198 377.50707589 248.5313208 373.50387797 246 369.5 C244.99992032 367.91671699 243.99992046 366.33338356 243 364.75 C242.505 363.96625 242.01 363.1825 241.5 362.375 C232 347.33333333 222.5 332.29166667 213 317.25 C212.50483887 316.4660083 212.00967773 315.6820166 211.49951172 314.87426758 C210.50109032 313.2934066 209.5027178 311.71251475 208.50439453 310.1315918 C205.98064508 306.13517484 203.45600702 302.13932412 200.9296875 298.14453125 C194.58880391 288.11556212 188.27739682 278.06883339 182 268 C179.33409813 271.24702489 176.92378922 274.53258613 174.671875 278.078125 C174.04539062 279.06103516 173.41890625 280.04394531 172.7734375 281.05664062 C172.10570313 282.11044922 171.43796875 283.16425781 170.75 284.25 C169.67526484 285.93788534 168.60052538 287.62576796 167.5255127 289.31347656 C166.41393289 291.05934905 165.30356516 292.80598789 164.19335938 294.55273438 C160.8080906 299.87649295 157.40299198 305.18756077 154 310.5 C152.66657415 312.58327412 151.3332411 314.66660764 150 316.75 C142 329.25 142 329.25 139.99951172 332.37573242 C138.66776903 334.4566007 137.33606323 336.53749258 136.00439453 338.6184082 C132.64702821 343.8646523 129.28899812 349.11046939 125.9296875 354.35546875 C124.57808964 356.46612319 123.22652694 358.57680014 121.875 360.6875 C121.21564453 361.71705811 120.55628906 362.74661621 119.87695312 363.80737305 C116.007427 369.8527914 112.15172072 375.90675759 108.3059082 381.96728516 C93.14213354 405.85786646 93.14213354 405.85786646 91 408 C87.83387337 408.09536242 84.68959372 408.12550636 81.52319336 408.11352539 C80.03067802 408.11374443 80.03067802 408.11374443 78.50801086 408.1139679 C75.20193338 408.11326831 71.89591146 408.10547379 68.58984375 408.09765625 C66.30440807 408.09579223 64.01897199 408.09436825 61.73353577 408.09336853 C55.70501613 408.08954207 49.67652041 408.0797107 43.64801025 408.06866455 C37.50167159 408.05845317 31.35532907 408.0538715 25.20898438 408.04882812 C13.13931238 408.03808854 1.06965818 408.0210106 -11 408 C-7.33990867 402.22735408 -3.68061372 396.45791038 0.109375 390.76953125 C0.46925003 390.22903641 0.82912506 389.68854156 1.1999054 389.13166809 C2.38188734 387.35768529 3.56579775 385.58500131 4.75 383.8125 C5.38227005 382.86500885 5.38227005 382.86500885 6.02731323 381.89837646 C17.12218802 365.27437604 28.31999827 348.71967045 39.51220703 332.16113281 C44.61798465 324.60671134 49.71833638 317.04862786 54.81900024 309.49075317 C57.63172195 305.32311693 60.4447756 301.15570475 63.2578125 296.98828125 C63.81513565 296.16261154 64.3724588 295.33694183 64.94667053 294.48625183 C68.30121813 289.51655056 71.65594988 284.54697366 75.01083374 279.57749939 C77.24203626 276.27247584 79.47315873 272.96739825 81.70428467 269.662323 C83.36478029 267.20263841 85.02540677 264.74304222 86.68603516 262.28344727 C92.78495526 253.24940581 98.87913256 244.21218997 104.96875 235.171875 C106.95805963 232.21941827 108.94743594 229.26700648 110.93682861 226.31460571 C112.21644464 224.41508815 113.49570798 222.51533293 114.77459717 220.61532593 C116.55460112 217.97083513 118.3357838 215.32714176 120.1171875 212.68359375 C120.63994263 211.90622864 121.16269775 211.12886353 121.70129395 210.32794189 C124.0298534 206.87458591 126.38698523 203.46500939 128.86328125 200.11572266 C131.22160225 197.28083309 131.22160225 197.28083309 131.0703125 194.46484375 C129.67222661 191.24516421 127.87490298 188.42885771 125.875 185.5625 C125.43760498 184.92127197 125.00020996 184.28004395 124.54956055 183.61938477 C123.5731124 182.18953176 122.5930067 180.7621718 121.60986328 179.33691406 C119.90617479 176.8638012 118.21554169 174.38214815 116.52734375 171.8984375 C113.34612054 167.21986883 110.15633806 162.5472092 106.96435547 157.87597656 C104.39433675 154.11325961 101.82836402 150.34779293 99.26245117 146.58227539 C94.0158282 138.88302075 88.76315914 131.1879602 83.5 123.5 C75.67794187 112.0742251 67.88178432 100.63081399 60.08398438 89.18847656 C53.56332322 79.62062187 47.04074255 70.05414174 40.5 60.5 C35.24097569 52.81807959 29.99093366 45.13007784 24.75073242 37.43530273 C21.46068941 32.60471443 18.16388773 27.77896317 14.85546875 22.9609375 C14.1785498 21.97327393 13.50163086 20.98561035 12.80419922 19.96801758 C11.51242138 18.08355471 10.21859855 16.20049139 8.92236328 14.3190918 C8.33567871 13.46226807 7.74899414 12.60544434 7.14453125 11.72265625 C6.63253174 10.97765869 6.12053223 10.23266113 5.59301758 9.46508789 C3.5978605 6.37771609 1.81555401 3.19648701 0 0 Z " fill="#0078B6" transform="translate(1897,190)"/>
<path d="M0 0 C26.4 0 52.8 0 80 0 C80.33 71.61 80.66 143.22 81 217 C90.43599696 207.67907421 90.43599696 207.67907421 99.19628906 198.03076172 C102.87332014 193.89086668 106.85612908 190.03704275 110.78594971 186.1388855 C112.41233269 184.52546486 114.03539696 182.90876729 115.65771484 181.29125977 C119.68463423 177.27758899 123.71702663 173.26943165 127.74926758 169.2611084 C131.1682862 165.86194276 134.58516399 162.46065133 137.99932861 159.05661011 C139.58521006 157.47712934 141.17411096 155.90073203 142.76318359 154.32446289 C149.47912481 147.64547316 155.83953662 141.01380061 161.36534309 133.30773735 C168.52780834 123.54274431 176.96246096 113.23738671 189.32385254 110.61804199 C202.83928051 108.57788007 216.69684551 109.49152491 230.28723145 110.21472168 C235.90371989 110.48442322 241.52338698 110.60020472 247.14453125 110.73046875 C258.10453238 111.00641048 269.05067109 111.44786744 280 112 C279.05063855 113.1148957 278.10022886 114.22889885 277.14938354 115.3425293 C276.62023787 115.9629863 276.09109219 116.5834433 275.54591179 117.22270203 C273.55660647 119.50975899 271.46180463 121.66781093 269.3203125 123.8125 C268.47339844 124.66070312 267.62648438 125.50890625 266.75390625 126.3828125 C265.88636719 127.24648438 265.01882813 128.11015625 264.125 129 C262.83529297 130.29550781 262.83529297 130.29550781 261.51953125 131.6171875 C260.24529297 132.88949219 260.24529297 132.88949219 258.9453125 134.1875 C258.18750488 134.94417969 257.42969727 135.70085937 256.64892578 136.48046875 C254.63747638 138.39366302 252.61086834 140.19586327 250.50146484 141.99414062 C245.02349874 146.75718668 239.95421206 151.93448995 234.84251404 157.08232117 C232.99384125 158.94392032 231.14192039 160.80223504 229.28918457 162.65979004 C225.3566189 166.60370565 221.42801101 170.55154876 217.5 174.5 C212.94316217 179.08055029 208.38465593 183.65941449 203.82188416 188.23405457 C202.00974195 190.05261291 200.20067157 191.87418796 198.39172363 193.69592285 C193.27173078 198.83843827 188.1525882 203.93236683 182.60534668 208.6207428 C179.9308417 210.91858307 177.4691251 213.42316556 175 215.9375 C174.26716797 216.67709961 174.26716797 216.67709961 173.51953125 217.43164062 C172.34396475 218.61873229 171.17161174 219.80900498 170 221 C171.69188848 226.18685412 174.78497385 230.37912581 177.8359375 234.83984375 C178.42210846 235.70517227 179.00827942 236.57050079 179.61221313 237.46205139 C180.87222877 239.32106896 182.13437673 241.17864271 183.3984375 243.03491211 C186.06988453 246.95793999 188.73125538 250.88776295 191.39312744 254.81729126 C192.73029465 256.79109332 194.06798215 258.76454301 195.40618896 260.73764038 C200.64532848 268.46469003 205.83670411 276.22215003 211 284 C216.51792318 292.30623466 222.06599695 300.59115703 227.65234375 308.8515625 C228.2403627 309.72112579 228.82838165 310.59068909 229.43421936 311.48660278 C230.03205734 312.37064789 230.62989532 313.25469299 231.24584961 314.16552734 C243.93313589 332.9269064 256.49860751 351.76275627 268.93139648 370.69384766 C269.49294937 371.54880829 270.05450226 372.40376892 270.6330719 373.28463745 C271.73876339 374.96826261 272.84410729 376.6521161 273.94908142 378.33621216 C276.9323135 382.87707715 279.93431664 387.40457733 282.95751953 391.91894531 C283.93242088 393.37525864 283.93242088 393.37525864 284.92701721 394.86099243 C286.18673794 396.74048042 287.44849974 398.61860233 288.71250916 400.49520874 C289.55489891 401.75175766 289.55489891 401.75175766 290.41430664 403.03369141 C290.91450821 403.77696686 291.41470978 404.52024231 291.93006897 405.28604126 C293 407 293 407 293 408 C280.3710359 408.60522496 267.74556639 409.06569157 255.10500336 409.34711647 C249.23289072 409.48228605 243.37075755 409.66507325 237.50439453 409.96142578 C198.4134658 411.88528897 198.4134658 411.88528897 190.37182617 405.55749512 C184.67643742 399.9960958 181.82107881 392.80637878 179.29064941 385.37835693 C177.1475983 379.76878432 173.81641996 374.97368303 170.5 370 C169.25479635 368.02436456 168.01454836 366.04558918 166.78125 364.0625 C165.853125 362.5775 165.853125 362.5775 164.90625 361.0625 C160.90219068 354.62974897 156.94518355 348.16797785 152.98046875 341.7109375 C148.52003798 334.45299383 144.02313376 327.21900971 139.5 320 C134.40541504 311.85942104 129.31603848 303.71563322 124.26318359 295.54907227 C123.21198057 293.85202118 122.1568177 292.15742497 121.1015625 290.46289062 C120.46347656 289.42970703 119.82539062 288.39652344 119.16796875 287.33203125 C118.60360107 286.42171143 118.0392334 285.5113916 117.45776367 284.57348633 C116.05776681 282.10197955 114.98482037 279.66066385 114 277 C113.34 277 112.68 277 112 277 C112 277.66 112 278.32 112 279 C110.55322266 280.44091797 110.55322266 280.44091797 108.5390625 282.1171875 C103.23514446 286.62703591 98.22095389 291.41577343 93.1796875 296.21484375 C92.11234375 297.22611328 92.11234375 297.22611328 91.0234375 298.2578125 C90.39356934 298.8573877 89.76370117 299.45696289 89.11474609 300.07470703 C87 302 87 302 83.9161377 304.00538635 C81.96147822 305.64560537 81.11240809 306.58590207 80.43883705 309.06725693 C80.22055608 311.67389459 80.19254678 314.22341822 80.22705078 316.83911133 C80.21642105 317.82495209 80.20579132 318.81079285 80.19483948 319.82650757 C80.16677722 323.07886739 80.18085132 326.32960563 80.1953125 329.58203125 C80.18406334 331.83934447 80.17018313 334.09664598 80.15377808 336.35392761 C80.11770279 342.29045709 80.11737142 348.22647196 80.12445068 354.16308594 C80.12552321 361.28844363 80.08226019 368.41365303 80.04641724 375.53890228 C79.99695454 386.35953539 80.00385713 397.17882157 80 408 C53.6 408 27.2 408 0 408 C0 273.36 0 138.72 0 0 Z " fill="#00ADD4" transform="translate(1386,190)"/>
<path d="M0 0 C27.39 0 54.78 0 83 0 C83.03738281 13.6021875 83.07476563 27.204375 83.11328125 41.21875 C83.14356702 49.8502705 83.17459822 58.48177772 83.20898438 67.11328125 C83.263392 80.80516335 83.31480843 94.49700863 83.34643555 108.18896484 C83.36948742 118.16246465 83.40296518 128.13586714 83.44870156 138.10928965 C83.47253715 143.38484014 83.49132904 148.66029481 83.49761391 153.93589783 C83.50370876 158.91324432 83.52386541 163.89034596 83.55427551 168.86760139 C83.5629858 170.68305313 83.56679308 172.49853696 83.56500816 174.31400871 C83.55577185 188.05749657 84.15339518 201.96860638 89.9375 214.6875 C90.66259766 216.33298828 90.66259766 216.33298828 91.40234375 218.01171875 C95.71083764 226.07039315 101.58474639 230.10891618 110.1875 232.75 C128.51654851 237.84304741 149.89752214 236.67299784 166.73046875 227.4609375 C184.26767644 216.17192601 189.79354664 197.49816017 193.984375 178.171875 C196.06655969 168.46928353 196.16810003 158.91468743 196.20532227 149.03710938 C196.21491296 147.42018388 196.22492372 145.80326084 196.23532104 144.18634033 C196.26224717 139.81506837 196.28332291 135.44378574 196.30332303 131.07247734 C196.32525882 126.49739538 196.35261021 121.92234581 196.37937927 117.34729004 C196.42920382 108.69191182 196.47418045 100.03651552 196.51740164 91.38110209 C196.57611662 79.67928323 196.64234822 67.97750706 196.70815182 56.27572632 C196.81156627 37.85051301 196.90496188 19.42526283 197 1 C223.4 1 249.8 1 277 1 C277 98.35 277 195.7 277 296 C251.59 296 226.18 296 200 296 C199.67 282.8 199.34 269.6 199 256 C195.7 260.29 192.4 264.58 189 269 C168.7605229 291.10363946 141.26863991 303.4849329 111.4074707 305.14404297 C81.69632627 306.21817444 51.76994778 300.6583687 29.125 280.25 C16.56798616 268.37588492 8.74067556 253.2680993 4.1875 236.75 C3.9925293 236.06147949 3.79755859 235.37295898 3.59667969 234.66357422 C-0.36090393 219.08800481 -0.28973587 202.70582177 -0.22705078 186.74926758 C-0.22648497 184.69723008 -0.22680654 182.64519217 -0.22793579 180.59315491 C-0.22850367 175.08615467 -0.2168421 169.57924367 -0.20278788 164.07226396 C-0.19018511 158.29343523 -0.18910256 152.5146039 -0.18673706 146.73576355 C-0.1805501 135.82117571 -0.16417742 124.9066285 -0.14403808 113.99205846 C-0.12159184 101.55413346 -0.11066382 89.11620641 -0.10064721 76.67826617 C-0.07980836 51.11881648 -0.04316741 25.5594224 0 0 Z " fill="#36C7E1" transform="translate(1033,302)"/>
<path d="M0 0 C26.73 0 53.46 0 81 0 C81 29.37 81 58.74 81 89 C100.8 89 120.6 89 141 89 C141 107.48 141 125.96 141 145 C121.2 145 101.4 145 81 145 C81.04033816 165.67156681 81.09716495 186.3428751 81.18390274 207.01429462 C81.22365422 216.61312948 81.25606645 226.21188281 81.27099609 235.81079102 C81.28403281 244.18053888 81.3110489 252.55010707 81.35461307 260.91975373 C81.37718255 265.34842927 81.3929134 269.77688357 81.39188385 274.20562172 C81.39113456 278.38114753 81.40919249 282.55618515 81.44116783 286.73158455 C81.44962902 288.25725831 81.45144266 289.78298706 81.44580269 291.30867386 C81.41609792 300.58581307 81.41706848 310.50027968 87.66193008 317.99438953 C93.24928876 323.51152422 100.50419644 324.22856326 108.03808594 324.22631836 C108.86083008 324.21608643 109.68357422 324.20585449 110.53125 324.1953125 C111.30952148 324.19329834 112.08779297 324.19128418 112.88964844 324.18920898 C115.75982673 324.17885036 118.62992013 324.15092893 121.5 324.125 C127.935 324.08375 134.37 324.0425 141 324 C141 344.46 141 364.92 141 386 C136.70829093 386.85834181 132.63223278 387.3154177 128.28515625 387.546875 C127.50970963 387.58850769 126.734263 387.63014038 125.93531799 387.67303467 C115.8908825 388.16174472 105.84100694 388.2225572 95.78637695 388.24023438 C92.43871726 388.24999645 89.09165891 388.28117132 85.74414062 388.3125 C73.4523279 388.37227619 62.00964032 387.70715392 50 385 C48.8665918 384.76667969 47.73318359 384.53335937 46.56542969 384.29296875 C33.536 381.5517925 20.76515446 375.06098926 13.25 363.8125 C1.44652807 343.81217256 -0.33448821 321.87133255 -0.22705078 299.18920898 C-0.2264848 297.4822897 -0.22680687 295.77536993 -0.22793579 294.06845093 C-0.22850301 289.49311317 -0.21685255 284.91788309 -0.20278788 280.34257007 C-0.19017371 275.53934465 -0.18910168 270.73611601 -0.18673706 265.93287659 C-0.18055338 256.86339004 -0.16418527 247.79395247 -0.14403808 238.72448736 C-0.12158146 228.38814191 -0.11066125 218.05179396 -0.10064721 207.71543014 C-0.07981582 186.47692013 -0.04317911 165.23847714 0 144 C-16.17 144 -32.34 144 -49 144 C-49 126.18 -49 108.36 -49 90 C-32.83 90 -16.66 90 0 90 C0 60.3 0 30.6 0 0 Z " fill="#A3E4F1" transform="translate(619,213)"/>
<path d="M0 0 C26.73 0 53.46 0 81 0 C81 29.37 81 58.74 81 89 C100.8 89 120.6 89 141 89 C141 107.48 141 125.96 141 145 C121.2 145 101.4 145 81 145 C81.04033816 165.67156681 81.09716495 186.3428751 81.18390274 207.01429462 C81.22365422 216.61312948 81.25606645 226.21188281 81.27099609 235.81079102 C81.28403281 244.18053888 81.3110489 252.55010707 81.35461307 260.91975373 C81.37718255 265.34842927 81.3929134 269.77688357 81.39188385 274.20562172 C81.39113456 278.38114753 81.40919249 282.55618515 81.44116783 286.73158455 C81.44962902 288.25725831 81.45144266 289.78298706 81.44580269 291.30867386 C81.41609792 300.58581307 81.41706848 310.50027968 87.66193008 317.99438953 C93.24928876 323.51152422 100.50419644 324.22856326 108.03808594 324.22631836 C108.86083008 324.21608643 109.68357422 324.20585449 110.53125 324.1953125 C111.30952148 324.19329834 112.08779297 324.19128418 112.88964844 324.18920898 C115.75982673 324.17885036 118.62992013 324.15092893 121.5 324.125 C127.935 324.08375 134.37 324.0425 141 324 C141 344.46 141 364.92 141 386 C125.83699687 388.1661433 110.58130012 388.21286163 95.2890625 388.24023438 C92.00495491 388.24998529 88.72146311 388.28114952 85.4375 388.3125 C73.24778693 388.37293347 61.91153781 387.67309145 50 385 C48.2989209 384.64989868 48.2989209 384.64989868 46.56347656 384.29272461 C32.76987738 381.38997993 20.37362632 374.56949292 12.59375 362.6875 C1.07983222 343.27187394 -0.33131766 321.20196683 -0.22705078 299.18920898 C-0.2264848 297.4822897 -0.22680687 295.77536993 -0.22793579 294.06845093 C-0.22850301 289.49311317 -0.21685255 284.91788309 -0.20278788 280.34257007 C-0.19017371 275.53934465 -0.18910168 270.73611601 -0.18673706 265.93287659 C-0.18055338 256.86339004 -0.16418527 247.79395247 -0.14403808 238.72448736 C-0.12158146 228.38814191 -0.11066125 218.05179396 -0.10064721 207.71543014 C-0.07981582 186.47692013 -0.04317911 165.23847714 0 144 C-16.17 144 -32.34 144 -49 144 C-49 126.18 -49 108.36 -49 90 C-32.83 90 -16.66 90 0 90 C0 60.3 0 30.6 0 0 Z " fill="#0097C8" transform="translate(1735,213)"/>
<path d="M0 0 C2.06013155 0.00541492 4.12005037 -0.0000028 6.18017578 -0.00634766 C7.48341797 -0.00505859 8.78666016 -0.00376953 10.12939453 -0.00244141 C11.3132373 -0.00131348 12.49708008 -0.00018555 13.71679688 0.00097656 C16.66845703 0.13037109 16.66845703 0.13037109 19.66845703 1.13037109 C19.66845703 25.88037109 19.66845703 50.63037109 19.66845703 76.13037109 C8.66845703 75.13037109 8.66845703 75.13037109 3.79345703 74.56787109 C-19.46931362 72.49561279 -40.81538751 74.21724091 -60.33154297 88.13037109 C-60.96576172 88.55576172 -61.59998047 88.98115234 -62.25341797 89.41943359 C-75.98520156 99.68677637 -82.81643652 120.18457 -86.33154297 136.13037109 C-86.49991354 136.87050603 -86.66828411 137.61064096 -86.84175682 138.37320423 C-88.51163279 146.45353426 -88.63880377 154.38354528 -88.65039062 162.60766602 C-88.65970796 164.13636799 -88.66987927 165.66506497 -88.68083191 167.1937561 C-88.70794265 171.31073147 -88.72322462 175.42767298 -88.73625994 179.54471374 C-88.75197405 183.85954493 -88.77873752 188.17430784 -88.80429077 192.48908997 C-88.85093281 200.64499504 -88.8877471 208.80091317 -88.92096364 216.95688277 C-88.96646569 227.98846714 -89.02728494 239.01996662 -89.08721161 250.05148029 C-89.18111348 267.41106784 -89.25466752 284.77068045 -89.33154297 302.13037109 C-116.39154297 302.13037109 -143.45154297 302.13037109 -171.33154297 302.13037109 C-171.33154297 204.45037109 -171.33154297 106.77037109 -171.33154297 6.13037109 C-145.59154297 6.13037109 -119.85154297 6.13037109 -93.33154297 6.13037109 C-93.00154297 22.63037109 -92.67154297 39.13037109 -92.33154297 56.13037109 C-89.03154297 50.85037109 -85.73154297 45.57037109 -82.33154297 40.13037109 C-66.76152799 19.44449405 -46.18562633 5.27053192 -20.36645508 0.78930664 C-13.60874261 -0.11039587 -6.80571615 -0.02135513 0 0 Z " fill="#87DCEC" transform="translate(976.33154296875,295.86962890625)"/>
</svg>
