<?xml version="1.0" encoding="UTF-8"?>
<svg version="1.1" xmlns="http://www.w3.org/2000/svg" width="2466" height="795">
<path d="M0 0 C813.78 0 1627.56 0 2466 0 C2466 262.35 2466 524.7 2466 795 C1652.22 795 838.44 795 0 795 C0 532.65 0 270.3 0 0 Z " fill="#FEFEFE" transform="translate(0,0)"/>
<path d="M0 0 C22.66646758 21.34764284 33.82381817 51.75210064 34.93359375 82.6328125 C34.99666563 87.11792416 34.99666563 87.11792416 34.84375 89.1328125 C33.08046528 90.89609722 30.74857856 90.25896894 28.39968872 90.26834106 C27.22924515 90.26530472 27.22924515 90.26530472 26.03515625 90.26220703 C24.80839676 90.26483551 24.80839676 90.26483551 23.55685425 90.26751709 C20.8399649 90.27193635 18.12314007 90.26899736 15.40625 90.265625 C13.52677396 90.26629802 11.64729801 90.26726803 9.76782227 90.26852417 C5.82339654 90.27000124 1.87899342 90.26784629 -2.06542969 90.26318359 C-7.13337503 90.2574863 -12.20126742 90.26076526 -17.26921082 90.26675606 C-21.15181887 90.27036142 -25.03441428 90.2692232 -28.91702271 90.26662827 C-30.78622443 90.26595893 -32.65542728 90.26678766 -34.52462769 90.26910782 C-37.13233504 90.27163393 -39.73995541 90.26779434 -42.34765625 90.26220703 C-43.12795197 90.26423126 -43.90824768 90.26625549 -44.71218872 90.26834106 C-50.04198747 90.24707503 -50.04198747 90.24707503 -51.15625 89.1328125 C-51.46940069 87.41259958 -51.77728 85.69122872 -52.0559082 83.96508789 C-54.34426848 69.95585788 -59.26189188 56.7603848 -70.15625 47.1328125 C-71.05730469 46.31876953 -71.05730469 46.31876953 -71.9765625 45.48828125 C-90.99781907 29.37987394 -118.99523612 28.47202392 -142.73193359 30.33496094 C-159.23349901 32.18280156 -175.14777335 38.0378329 -185.875 51.23828125 C-192.85086434 61.5532026 -193.85096275 74.16686599 -191.578125 86.19140625 C-188.24993772 95.88853373 -179.74729272 101.47165266 -170.99829102 106.07397461 C-149.36224952 116.57899886 -124.08138674 121.15201013 -100.94380188 127.23347473 C-15.28879761 149.74796911 -15.28879761 149.74796911 18.84375 177.1328125 C19.64425781 177.76703125 20.44476562 178.40125 21.26953125 179.0546875 C38.80086425 193.70954963 47.87922589 215.99435536 50.56640625 238.28515625 C53.15439286 274.18891418 45.66723007 307.84352035 22.00390625 335.6875 C21.29105469 336.49445313 20.57820313 337.30140625 19.84375 338.1328125 C19.24433594 338.81601562 18.64492188 339.49921875 18.02734375 340.203125 C1.85830275 357.45475837 -20.98375847 368.02294784 -43.15625 375.1328125 C-43.878125 375.36693848 -44.6 375.60106445 -45.34375 375.84228516 C-58.3383338 379.97077272 -71.67662899 382.21813331 -85.15625 384.1328125 C-86.37376953 384.31005859 -87.59128906 384.48730469 -88.84570312 384.66992188 C-93.7353016 385.26938043 -98.60219036 385.31255243 -103.5234375 385.3359375 C-104.5074353 385.34299713 -105.49143311 385.35005676 -106.50524902 385.35733032 C-148.59421503 385.59047692 -148.59421503 385.59047692 -167.15625 382.1328125 C-168.75702393 381.83479736 -168.75702393 381.83479736 -170.39013672 381.53076172 C-210.25025072 373.78839999 -248.99496682 355.3636866 -272.33984375 320.91015625 C-274.36754508 317.69419895 -276.28843361 314.44394156 -278.15625 311.1328125 C-278.68992187 310.19050781 -279.22359375 309.24820312 -279.7734375 308.27734375 C-289.56859063 289.87971158 -294.4282013 268.83821454 -294.21875 248.0703125 C-294.21423828 247.20470703 -294.20972656 246.33910156 -294.20507812 245.44726562 C-294.19344913 243.34241711 -294.17552073 241.23760492 -294.15625 239.1328125 C-282.69974984 239.10969009 -271.24325519 239.09189793 -259.78673649 239.08100033 C-254.46759787 239.07577128 -249.14847516 239.06867323 -243.8293457 239.05737305 C-238.70061015 239.04654495 -233.57188994 239.04053583 -228.44314384 239.03793526 C-226.48183386 239.03608087 -224.52052476 239.03245999 -222.55922127 239.02708244 C-219.82209553 239.01987304 -217.08503403 239.01882151 -214.34790039 239.01928711 C-213.11899582 239.0138942 -213.11899582 239.0138942 -211.86526489 239.00839233 C-206.27030216 239.01876034 -206.27030216 239.01876034 -205.15625 240.1328125 C-204.93072326 241.57577123 -204.76001272 243.02738166 -204.61328125 244.48046875 C-202.37900957 264.58712928 -197.44622617 283.60580048 -181.15625 297.1328125 C-162.12228121 311.33275747 -139.22111795 315.54627806 -115.96875 315.4453125 C-115.29093475 315.44315735 -114.61311951 315.4410022 -113.9147644 315.43878174 C-92.10476419 315.32780569 -69.44489326 312.19160384 -52.66015625 296.8515625 C-42.20611274 286.0027029 -38.57667961 273.4249491 -38.84765625 258.6328125 C-39.65580279 249.46699853 -43.25053923 242.20391495 -50.15625 236.1328125 C-75.98541362 215.92980333 -118.69834941 209.3472396 -149.82597351 200.8711853 C-185.69828077 191.07752475 -220.90569041 180.84351854 -250.01953125 156.88671875 C-251.7328791 155.48033267 -253.49942375 154.13886393 -255.28125 152.8203125 C-272.13307194 137.06752242 -279.40650536 109.12983351 -280.37109375 86.71875 C-281.24343299 55.62999592 -271.85504408 27.57141838 -250.55078125 4.59765625 C-189.93362128 -57.79945296 -63.51097902 -58.20567489 0 0 Z " fill="#BCECF5" transform="translate(495.15625,221.8671875)"/>
<path d="M0 0 C13.48156078 -0.46457627 26.96120322 -0.81932046 40.4491539 -1.03624344 C46.71361769 -1.14039676 52.9725868 -1.28145174 59.23388672 -1.50878906 C65.28392022 -1.72706605 71.32869433 -1.84585572 77.38236237 -1.89754486 C79.68430715 -1.93434151 81.98598105 -2.00622029 84.28566742 -2.11460114 C101.80543343 -2.90699733 101.80543343 -2.90699733 107.10054016 1.91145325 C110.85635628 6.66706889 113.39290915 11.87945165 115.79595852 17.41365719 C117.72730502 21.56228846 120.22559496 25.31823826 122.75 29.125 C123.2958374 29.98472412 123.8416748 30.84444824 124.40405273 31.73022461 C124.84692627 32.42639893 125.2897998 33.12257324 125.74609375 33.83984375 C129.49103129 39.75455011 133.15111869 45.72083709 136.8125 51.6875 C142.60984737 61.13334439 148.45503328 70.54725115 154.34155273 79.93774414 C159.06078695 87.47496965 163.72459764 95.04523604 168.375 102.625 C173.81279799 111.48625783 179.30597553 120.30079595 185 129 C189.19821905 125.35365951 191.6195244 120.87326265 194.375 116.125 C198.72725886 108.7479246 203.19123376 101.46165043 207.8125 94.25 C212.73018051 86.56778191 217.60879167 78.86349991 222.4375 71.125 C223.05987549 70.12758789 223.68225098 69.13017578 224.32348633 68.10253906 C225.58551906 66.07924663 226.84731879 64.05580884 228.10888672 62.03222656 C231.23543421 57.01909464 234.3679642 52.00970413 237.5 47 C241.34530413 40.84862548 245.18968964 34.69668213 249.03125 28.54296875 C249.69576172 27.47884766 250.36027344 26.41472656 251.04492188 25.31835938 C252.30181276 23.30557607 253.55835245 21.29257341 254.81445312 19.27929688 C255.93718148 17.48167706 257.07941669 15.69601394 258.24559021 13.92626953 C260.06706312 11.08995841 260.06706312 11.08995841 261.08155823 8.09631348 C262.63277226 4.49529115 263.95998592 2.51697839 267 0 C274.11893328 -2.09873682 282.01257417 -1.27350861 289.33984375 -1.07421875 C291.54940414 -1.05369056 293.75901475 -1.03803805 295.96864319 -1.02705383 C301.77161014 -0.98514458 307.57152596 -0.87717827 313.37329102 -0.75531006 C319.29857098 -0.64257997 325.22434635 -0.59250127 331.15039062 -0.53710938 C342.76826436 -0.41929904 354.38387804 -0.2316777 366 0 C363.8627341 3.78459105 361.73761484 7.5245524 359.29638672 11.12304688 C358.79903519 11.85898575 358.30168365 12.59492462 357.78926086 13.35316467 C356.99252205 14.52412941 356.99252205 14.52412941 356.1796875 15.71875 C355.61207199 16.55768295 355.04445648 17.39661591 354.4596405 18.26097107 C353.23724953 20.06733662 352.01378061 21.87297309 350.78933716 23.677948 C347.51707652 28.50180551 344.25251191 33.3308627 340.98828125 38.16015625 C340.32152878 39.14633438 339.65477631 40.13251251 338.96781921 41.14857483 C332.84006386 50.22011627 326.7724463 59.33103262 320.71514893 68.44970703 C313.40941506 79.44729584 306.09473779 90.42058773 298.44775391 101.18505859 C291.28909445 111.32631426 284.48869036 121.71367374 277.62304688 132.05419922 C271.43650471 141.36745113 265.21657029 150.65633067 258.94140625 159.91015625 C258.2761644 160.8920845 257.61092255 161.87401276 256.92552185 162.88569641 C254.30689574 166.75035576 251.68815829 170.61489225 249.05978394 174.47293091 C247.2441362 177.1380812 245.4341215 179.80697965 243.625 182.4765625 C243.08351822 183.26752823 242.54203644 184.05849396 241.98414612 184.87342834 C240.61835963 186.89420512 239.30298527 188.93845484 238 191 C237.44127197 191.8262085 236.88254395 192.65241699 236.30688477 193.50366211 C235.75774947 197.97057413 238.89482929 201.00718322 241.46484375 204.46484375 C242.6858816 206.17479894 243.90572726 207.88560593 245.12451172 209.59716797 C245.76507507 210.48539246 246.40563843 211.37361694 247.06561279 212.28875732 C250.19582316 216.67606919 253.18980243 221.15308436 256.19140625 225.62890625 C257.4156508 227.44490745 258.64026278 229.26066102 259.86523438 231.07617188 C260.47455811 231.98036865 261.08388184 232.88456543 261.71166992 233.81616211 C263.56409286 236.56486355 265.41771785 239.31275144 267.27148438 242.06054688 C272.8672792 250.35854684 278.45133247 258.66389227 283.99609375 266.99609375 C290.78376389 277.19574857 297.64232558 287.34733609 304.5 297.5 C311.84757275 308.37794959 319.18558524 319.26133107 326.45727539 330.19018555 C332.76079151 339.65641963 339.13422221 349.07558022 345.5 358.5 C353.90849886 370.94863167 362.30586706 383.40391122 370.61352539 395.92016602 C371.6282888 397.44240048 372.64917802 398.96055619 373.67358398 400.47631836 C374.22409424 401.29302002 374.77460449 402.10972168 375.34179688 402.95117188 C376.10308899 404.07549622 376.10308899 404.07549622 376.87976074 405.22253418 C378 407 378 407 378 408 C364.10989383 408.42174546 350.22078821 408.73728547 336.32557964 408.93261909 C329.8722589 409.02639892 323.42325026 409.153453 316.97241211 409.35791016 C310.74095038 409.55416778 304.51362073 409.66123868 298.27930641 409.70779037 C295.90693885 409.74093785 293.53478697 409.80568344 291.16419029 409.90314102 C273.06446718 410.61733096 273.06446718 410.61733096 267.94221687 406.24246788 C264.40513783 401.9556876 262.06544037 397.24082798 259.93348503 392.1363287 C258.67515411 389.25657342 257.03203653 386.70322638 255.28515625 384.09765625 C254.48343994 382.84239136 254.48343994 382.84239136 253.66552734 381.56176758 C253.13652832 380.73700928 252.6075293 379.91225098 252.0625 379.0625 C250.86821794 377.19288183 249.67421246 375.32308695 248.48046875 373.453125 C247.89700684 372.53982422 247.31354492 371.62652344 246.71240234 370.68554688 C244.08754742 366.56900794 241.47999925 362.44162334 238.875 358.3125 C238.38781494 357.54043213 237.90062988 356.76836426 237.39868164 355.97290039 C236.42160334 354.42422235 235.44463343 352.87547591 234.46777344 351.32666016 C231.98016643 347.38339755 229.48993586 343.44179232 227 339.5 C225.99998776 337.9166744 224.99998775 336.33334107 224 334.75 C223.505 333.96625 223.01 333.1825 222.5 332.375 C206 306.25 206 306.25 204.49804688 303.87158203 C203.50494971 302.29939398 202.51146451 300.72745097 201.51757812 299.15576172 C198.90861503 295.02890322 196.30792206 290.89712125 193.71875 286.7578125 C193.17992188 285.89865234 192.64109375 285.03949219 192.0859375 284.15429688 C191.05738883 282.51393908 190.03120042 280.87209806 189.0078125 279.22851562 C186.53494478 275.29037131 184.00820181 271.56159742 181 268 C180.46375 268.86496094 179.9275 269.72992188 179.375 270.62109375 C172.05655013 282.39306858 164.58009444 294.06242089 157.09667969 305.72998047 C153.72762579 310.98441782 150.36401301 316.24233454 147 321.5 C145.6666944 323.58335108 144.33336103 325.66668439 143 327.75 C142.34 328.78125 141.68 329.8125 141 330.875 C139 334 137 337.125 135 340.25 C134.00987915 341.7971167 134.00987915 341.7971167 132.99975586 343.37548828 C131.66736566 345.45727679 130.33484628 347.53898263 129.00219727 349.62060547 C125.65336576 354.8519017 122.30684297 360.08464843 118.96484375 365.3203125 C112.20451495 375.90667191 105.4168623 386.47421686 98.5625 397 C97.91724365 397.99209473 97.2719873 398.98418945 96.60717773 400.00634766 C96.01622314 400.91175293 95.42526855 401.8171582 94.81640625 402.75 C94.29506104 403.54921875 93.77371582 404.3484375 93.23657227 405.171875 C92 407 92 407 91 408 C87.83387337 408.09536242 84.68959372 408.12550636 81.52319336 408.11352539 C80.03067802 408.11374443 80.03067802 408.11374443 78.50801086 408.1139679 C75.20193338 408.11326831 71.89591146 408.10547379 68.58984375 408.09765625 C66.30440807 408.09579223 64.01897199 408.09436825 61.73353577 408.09336853 C55.70501613 408.08954207 49.67652041 408.0797107 43.64801025 408.06866455 C37.50167159 408.05845317 31.35532907 408.0538715 25.20898438 408.04882812 C13.13931238 408.03808854 1.06965818 408.0210106 -11 408 C-9.89971476 406.26663281 -8.79885246 404.53363191 -7.69775391 402.80078125 C-7.08477448 401.83567627 -6.47179504 400.87057129 -5.84024048 399.8762207 C-3.07134345 395.54854774 -0.22987908 391.27127123 2.625 387 C3.62430542 385.50303589 3.62430542 385.50303589 4.64379883 383.97583008 C14.78310197 368.80291503 25.00994594 353.68849699 35.22012329 338.56324768 C39.60548408 332.06675089 43.98904064 325.56904083 48.37109375 319.0703125 C49.27165749 317.7347506 49.27165749 317.7347506 50.19041443 316.37220764 C51.39856418 314.58046779 52.60670934 312.78872484 53.81484985 310.99697876 C64.80080428 294.70464999 75.79174574 278.4156919 86.78808594 262.13037109 C92.85054317 253.15136707 98.90822938 244.16917288 104.9609375 235.18359375 C106.95218321 232.22824008 108.94349248 229.27292924 110.93481445 226.31762695 C112.21528156 224.41682534 113.49539958 222.51578853 114.77514648 220.61450195 C116.55496651 217.97028526 118.33596613 215.32686659 120.1171875 212.68359375 C120.63993256 211.90624374 121.16267761 211.12889374 121.70126343 210.32798767 C124.0298328 206.87461617 126.38697429 203.46502418 128.86328125 200.11572266 C131.22160225 197.28083309 131.22160225 197.28083309 131.0703125 194.46484375 C129.67222661 191.24516421 127.87490298 188.42885771 125.875 185.5625 C125.43760498 184.92127197 125.00020996 184.28004395 124.54956055 183.61938477 C123.5731124 182.18953176 122.5930067 180.7621718 121.60986328 179.33691406 C119.90617479 176.8638012 118.21554169 174.38214815 116.52734375 171.8984375 C113.34313963 167.21550974 110.15050145 162.53840423 106.95556641 157.86279297 C103.80051077 153.2440436 100.65045968 148.6218849 97.5 144 C96.25262435 142.17055915 95.00522848 140.3411321 93.7578125 138.51171875 C91.23134626 134.80627881 88.70535316 131.10051692 86.1796875 127.39453125 C80.29347622 118.75820486 74.4040623 110.12413521 68.5 101.5 C61.95627371 91.94149987 55.43081159 82.37059362 48.90722656 72.79833984 C45.77213959 68.19844649 42.63602319 63.59925511 39.5 59 C38.24999495 57.16667011 36.99999495 55.33333678 35.75 53.5 C34.821875 52.13875 34.821875 52.13875 33.875 50.75 C32 48 30.125 45.25 28.25 42.5 C27.63020264 41.5910498 27.01040527 40.68209961 26.37182617 39.74560547 C25.13208182 37.92714127 23.89265692 36.10845923 22.65356445 34.28955078 C19.37434984 29.47680966 16.08834965 24.66887662 12.79296875 19.8671875 C12.10589844 18.86429688 11.41882812 17.86140625 10.7109375 16.828125 C9.39135689 14.9022506 8.06983336 12.9777056 6.74609375 11.0546875 C5.85664062 9.7553125 5.85664062 9.7553125 4.94921875 8.4296875 C4.42674561 7.66897949 3.90427246 6.90827148 3.3659668 6.12451172 C2.08507877 4.13232448 1.0405326 2.12425508 0 0 Z " fill="#0078B6" transform="translate(1897,190)"/>
<path d="M0 0 C26.4 0 52.8 0 80 0 C80.33 71.61 80.66 143.22 81 217 C88.77989811 209.23166264 88.77989811 209.23166264 96.05053711 201.17651367 C99.96509286 196.80603597 104.17819798 192.71509181 108.34153748 188.58329773 C110.06872676 186.86905414 111.7926132 185.15154698 113.51574707 183.43322754 C117.79309807 179.16913523 122.07591759 174.91054939 126.35858154 170.65179443 C129.98897448 167.04124298 133.61723537 163.42857358 137.24278259 159.81315613 C138.9283829 158.13396365 140.61700141 156.45784924 142.30578613 154.78186035 C151.79377 145.36796065 151.79377 145.36796065 160.16851807 134.97576904 C167.56920745 124.65781051 176.30308794 113.37710603 189.32385254 110.61804199 C202.83928051 108.57788007 216.69684551 109.49152491 230.28723145 110.21472168 C235.90371989 110.48442322 241.52338698 110.60020472 247.14453125 110.73046875 C258.10453238 111.00641048 269.05067109 111.44786744 280 112 C279.06438308 113.1018108 278.12726739 114.20234899 277.18954468 115.30236816 C276.66785391 115.91537025 276.14616314 116.52837234 275.60866356 117.15995026 C273.11978509 120.00682284 270.46702716 122.67592666 267.7890625 125.34375 C266.93131729 126.2029303 266.93131729 126.2029303 266.0562439 127.07946777 C264.85578062 128.28060622 263.65407505 129.48050426 262.45117188 130.67919922 C260.63296563 132.49205779 258.82015053 134.31018328 257.0078125 136.12890625 C255.83104953 137.30500813 254.65397624 138.48079962 253.4765625 139.65625 C252.94608307 140.18875366 252.41560364 140.72125732 251.86904907 141.26989746 C249.13229847 143.9900771 246.34219873 146.58611956 243.40576172 149.08984375 C237.95488825 153.81481515 232.92214593 158.96678275 227.84251404 164.08232117 C225.99384125 165.94392032 224.14192039 167.80223504 222.28918457 169.65979004 C218.3566189 173.60370565 214.42801101 177.55154876 210.5 181.5 C205.94316217 186.08055029 201.38465593 190.65941449 196.82188416 195.23405457 C195.00974195 197.05261291 193.20067157 198.87418796 191.39172363 200.69592285 C186.24977389 205.86046382 181.10531925 210.97155979 175.53820801 215.68444824 C173.58562662 217.35439266 171.77865265 219.14723682 170 221 C171.23206487 224.33137915 172.59677175 227.0971454 174.67578125 229.97265625 C175.52305786 231.1622998 175.52305786 231.1622998 176.38745117 232.37597656 C177.02271729 233.2625293 177.6579834 234.14908203 178.3125 235.0625 C186.35904726 246.45887318 194.03653513 258.08543906 201.6875 269.75 C211.52296258 284.73716573 221.44842181 299.65691454 231.5 314.5 C242.73864809 331.10081404 253.8260764 347.79591407 264.8347168 364.55004883 C266.01217675 366.34197953 267.18966645 368.13389069 268.3671875 369.92578125 C268.93462173 370.78935745 269.50205597 371.65293365 270.08668518 372.54267883 C273.64427137 377.95227681 277.22129647 383.34834899 280.8203125 388.73046875 C281.25658463 389.38298615 281.69285675 390.03550354 282.14234924 390.70779419 C284.11670541 393.65869756 286.09457647 396.60718082 288.0769043 399.55273438 C288.73859619 400.53951172 289.40028809 401.52628906 290.08203125 402.54296875 C290.65155518 403.38883545 291.2210791 404.23470215 291.80786133 405.10620117 C293 407 293 407 293 408 C280.31827205 408.48817845 267.63880093 408.86046034 254.94956684 409.08805561 C249.0556785 409.19734562 243.16824644 409.34528823 237.27807617 409.58422852 C231.584558 409.81372564 225.89721069 409.93820179 220.19942284 409.9924221 C218.03492145 410.03100863 215.87073176 410.10638879 213.7088871 410.22033119 C200.00585012 410.91333209 200.00585012 410.91333209 194 408 C188.59965515 402.96176328 185.46647404 396.37796179 182.36831379 389.77522659 C180.11769116 385.21049312 177.36605399 380.96935211 174.625 376.6875 C174.0261499 375.71925293 173.4272998 374.75100586 172.81030273 373.75341797 C168.78904554 367.2607418 164.74079598 360.7852093 160.6875 354.3125 C154.7428121 344.81804561 148.86013994 335.28679617 142.9987793 325.74072266 C137.74601159 317.19334615 132.44006879 308.68020406 127.11499023 300.17773438 C122.70798867 293.13987378 118.33114482 286.08481198 114 279 C109.27868711 280.42416202 106.48994241 283.19314811 103.1875 286.6875 C102.12696299 287.78055386 101.0644638 288.87170736 100 289.9609375 C99.48695312 290.48655273 98.97390625 291.01216797 98.4453125 291.55371094 C96.02269698 293.97796336 93.42896544 296.18403452 90.81640625 298.3984375 C88.21149678 300.6952394 85.82958649 303.19194918 83.4453125 305.71484375 C82 307 82 307 80 307 C80 340.33 80 373.66 80 408 C53.6 408 27.2 408 0 408 C0 273.36 0 138.72 0 0 Z " fill="#01AED4" transform="translate(1386,190)"/>
<path d="M0 0 C27.39 0 54.78 0 83 0 C83.03738281 13.6021875 83.07476563 27.204375 83.11328125 41.21875 C83.14356702 49.8502705 83.17459822 58.48177772 83.20898438 67.11328125 C83.263392 80.80516335 83.31480843 94.49700863 83.34643555 108.18896484 C83.36948742 118.16246465 83.40296518 128.13586714 83.44870156 138.10928965 C83.47253715 143.38484014 83.49132904 148.66029481 83.49761391 153.93589783 C83.50370876 158.91324432 83.52386541 163.89034596 83.55427551 168.86760139 C83.5629858 170.68305313 83.56679308 172.49853696 83.56500816 174.31400871 C83.55345499 191.50493368 84.23365984 212.8809985 97 226 C109.01100652 236.42906908 126.1852552 235.96818946 141.10546875 235.23193359 C155.1962301 234.10286618 168.40297625 228.47272983 178 218 C189.40546472 203.08339624 195.06285692 183.2784103 195.15821838 164.62843323 C195.16315636 163.92008125 195.16809434 163.21172927 195.17318195 162.48191208 C195.18844541 160.12669683 195.19688704 157.7715086 195.20532227 155.41625977 C195.21490958 153.72066514 195.22492015 152.02507286 195.23532104 150.32948303 C195.26228374 145.73914992 195.28333989 141.14880663 195.30332303 136.55843854 C195.32523603 131.75646449 195.35259866 126.95452155 195.37937927 122.15257263 C195.42923444 113.06508559 195.47419981 103.97758121 195.51740164 94.89006037 C195.57608262 82.6060688 195.64233083 70.32211818 195.70815182 58.03816319 C195.81161421 38.69213641 195.904978 19.34607434 196 0 C222.73 0 249.46 0 277 0 C277 97.68 277 195.36 277 296 C251.59 296 226.18 296 200 296 C199.67 282.8 199.34 269.6 199 256 C197.02 258.64 195.04 261.28 193 264 C173.39710069 287.59994439 147.97926166 301.27516121 117.5 304.8125 C115.66791917 304.90468017 113.83400452 304.96198954 112 305 C111.30068359 305.02964844 110.60136719 305.05929687 109.88085938 305.08984375 C90.79593654 305.86755047 71.63442391 303.68969124 54 296 C52.48792969 295.35611328 52.48792969 295.35611328 50.9453125 294.69921875 C29.06432046 284.61122891 14.82176418 266.40200215 6.31640625 244.26953125 C1.56834562 229.94938038 -0.17638801 213.93602297 -0.12025452 198.90097046 C-0.12110894 198.04304732 -0.12196337 197.18512418 -0.12284368 196.30120337 C-0.12447648 193.45777895 -0.11901353 190.61441498 -0.11352539 187.77099609 C-0.11324302 185.72028607 -0.11340223 183.66957594 -0.1139679 181.61886597 C-0.11425391 176.0741715 -0.10838884 170.52949882 -0.10139394 164.9848094 C-0.09512779 159.18190084 -0.09455402 153.37899174 -0.09336853 147.57608032 C-0.09026482 136.59745869 -0.08206439 125.61884706 -0.07201904 114.64022982 C-0.06082807 102.13721417 -0.05533994 89.63419803 -0.05032361 77.13117862 C-0.03988096 51.42077893 -0.02154743 25.71039294 0 0 Z " fill="#37C8E2" transform="translate(1033,302)"/>
<path d="M0 0 C26.73 0 53.46 0 81 0 C81 29.37 81 58.74 81 89 C100.8 89 120.6 89 141 89 C141 107.48 141 125.96 141 145 C121.2 145 101.4 145 81 145 C81.06292717 165.42803604 81.13815031 185.85590659 81.23571491 206.28380394 C81.28062627 215.76943219 81.32005165 225.25502329 81.34643555 234.74072266 C81.3694534 243.01118839 81.40289364 251.28153609 81.44870156 259.55190814 C81.47258278 263.92853761 81.49134492 268.30505054 81.49761391 272.68174362 C81.50368792 276.80713031 81.52377081 280.93221902 81.55427551 285.05749512 C81.56301877 286.56585237 81.56678607 288.07424862 81.56500816 289.58263016 C81.55660583 300.00698463 81.7539851 310.7747939 89 319 C96.17709121 323.77960464 103.51304168 324.15173958 111.8984375 324.09765625 C113.15087753 324.09553383 113.15087753 324.09553383 114.42861938 324.09336853 C117.07745042 324.08780174 119.7261948 324.07525547 122.375 324.0625 C124.17838419 324.0574807 125.98176971 324.05291855 127.78515625 324.04882812 C132.19013721 324.0378432 136.59505394 324.02060163 141 324 C141.02312737 332.06652174 141.04091709 340.13302972 141.05181217 348.19957638 C141.05704014 351.94483037 141.06413622 355.69006176 141.07543945 359.43530273 C141.08627141 363.04681687 141.09227749 366.65830921 141.09487724 370.26983833 C141.09673094 371.65060329 141.10035049 373.031367 141.10573006 374.41212273 C141.11294447 376.33975952 141.11340809 378.26741807 141.11352539 380.19506836 C141.115746 381.29427109 141.11796661 382.39347382 141.12025452 383.52598572 C141 386 141 386 140 387 C137.55700251 387.23314993 135.13667614 387.40470571 132.6875 387.53515625 C131.55905167 387.59989388 131.55905167 387.59989388 130.4078064 387.66593933 C127.9388437 387.80463924 125.46954794 387.93466346 123 388.0625 C122.16043762 388.10669067 121.32087524 388.15088135 120.45587158 388.19641113 C45.58735366 392.08461633 45.58735366 392.08461633 19.625 371.875 C3.62433964 356.42254213 0.13004301 331.67031353 -0.25961304 310.49084473 C-0.39417091 300.93996697 -0.34816572 291.38784939 -0.30418181 281.83645916 C-0.28521916 277.01323928 -0.28364935 272.19001167 -0.28010559 267.36676025 C-0.27084193 258.26546992 -0.24630644 249.1642898 -0.21605712 240.06304765 C-0.18233453 229.68794801 -0.16598255 219.31284265 -0.15097082 208.9377017 C-0.11975071 187.62507334 -0.06710275 166.31254366 0 145 C-0.91748268 145.00333092 -0.91748268 145.00333092 -1.85350037 145.00672913 C-8.19570331 145.02878122 -14.53789544 145.04390627 -20.88012695 145.05493164 C-23.24992312 145.05997341 -25.61971615 145.06680665 -27.98950195 145.07543945 C-31.38754039 145.0875119 -34.78553785 145.09322971 -38.18359375 145.09765625 C-39.25024765 145.10281754 -40.31690155 145.10797882 -41.4158783 145.11329651 C-42.39681961 145.11337204 -43.37776093 145.11344757 -44.38842773 145.11352539 C-45.69081642 145.11685631 -45.69081642 145.11685631 -47.01951599 145.12025452 C-49 145 -49 145 -50 144 C-50.0935919 142.28134591 -50.11744611 140.55884256 -50.11352539 138.83764648 C-50.11344986 137.73658066 -50.11337433 136.63551483 -50.11329651 135.50108337 C-50.10813522 134.3031868 -50.10297394 133.10529022 -50.09765625 131.87109375 C-50.0962413 130.65172623 -50.09482635 129.4323587 -50.09336853 128.17604065 C-50.08774967 124.2631693 -50.07519396 120.35035419 -50.0625 116.4375 C-50.05748743 113.79231853 -50.0529241 111.14713617 -50.04882812 108.50195312 C-50.03862296 102.00126274 -50.01905121 95.50069467 -50 89 C-33.5 89 -17 89 0 89 C0 59.63 0 30.26 0 0 Z " fill="#A4E5F1" transform="translate(619,213)"/>
<path d="M0 0 C26.73 0 53.46 0 81 0 C81 29.37 81 58.74 81 89 C100.8 89 120.6 89 141 89 C141 107.48 141 125.96 141 145 C121.2 145 101.4 145 81 145 C81.04033816 165.67156681 81.09716495 186.3428751 81.18390274 207.01429462 C81.22365422 216.61312948 81.25606645 226.21188281 81.27099609 235.81079102 C81.28403281 244.18053888 81.3110489 252.55010707 81.35461307 260.91975373 C81.37718255 265.34842927 81.3929134 269.77688357 81.39188385 274.20562172 C81.39113456 278.38114753 81.40919249 282.55618515 81.44116783 286.73158455 C81.44962902 288.25725831 81.45144266 289.78298706 81.44580269 291.30867386 C81.41600789 300.61393002 81.46848819 310.40884701 87.61368847 317.99103069 C93.34958524 323.71839102 101.22167271 324.22809257 108.96583557 324.22659302 C109.7724614 324.21627045 110.57908722 324.20594788 111.41015625 324.1953125 C112.68952309 324.19106766 112.68952309 324.19106766 113.99473572 324.18673706 C116.68414118 324.17565831 119.37319742 324.15057793 122.0625 324.125 C123.90038577 324.11495425 125.73827683 324.10583121 127.57617188 324.09765625 C132.05091313 324.07575951 136.52539763 324.04131673 141 324 C141.02312737 332.06652174 141.04091709 340.13302972 141.05181217 348.19957638 C141.05704014 351.94483037 141.06413622 355.69006176 141.07543945 359.43530273 C141.08627141 363.04681687 141.09227749 366.65830921 141.09487724 370.26983833 C141.09673094 371.65060329 141.10035049 373.031367 141.10573006 374.41212273 C141.11294447 376.33975952 141.11340809 378.26741807 141.11352539 380.19506836 C141.115746 381.29427109 141.11796661 382.39347382 141.12025452 383.52598572 C141 386 141 386 140 387 C137.55631091 387.2465803 135.14260162 387.42059037 132.69140625 387.546875 C131.90254532 387.58850769 131.11368439 387.63014038 130.30091858 387.67303467 C119.42385013 388.18812542 108.53743072 388.22295411 97.65014648 388.24023438 C93.94036873 388.24999245 90.23113431 388.28115154 86.52148438 388.3125 C62.69841987 388.41821703 35.05507515 386.72917127 17 369 C4.04237888 353.28245236 -0.13460805 331.37439964 -0.12025452 311.39428711 C-0.12110894 310.67283005 -0.12196337 309.95137299 -0.12284368 309.20805359 C-0.12447782 306.81445758 -0.11901129 304.4209332 -0.11352539 302.02734375 C-0.11324305 300.30204775 -0.11340218 298.57675162 -0.1139679 296.85145569 C-0.11425402 292.18471228 -0.1083871 287.51799474 -0.10139394 282.85125732 C-0.0951297 277.96789685 -0.09455417 273.08453574 -0.09336853 268.20117188 C-0.09026426 258.96140673 -0.08206307 249.72165346 -0.07201904 240.48189354 C-0.06082981 229.95953982 -0.05534037 219.43718553 -0.05032361 208.91482735 C-0.0398797 187.27654347 -0.02154546 165.63827587 0 144 C-16.5 144 -33 144 -50 144 C-50 125.85 -50 107.7 -50 89 C-33.5 89 -17 89 0 89 C0 59.63 0 30.26 0 0 Z " fill="#0198C9" transform="translate(1735,213)"/>
<path d="M0 0 C0 24.75 0 49.5 0 75 C-12 74 -12 74 -16.5859375 73.453125 C-37.79139048 71.03018975 -61.11597351 72.81376962 -78.6640625 86.07421875 C-96.51899312 100.7940863 -105.01214801 122.78014657 -107.77825356 145.38124466 C-108.27289296 151.22277954 -108.18162363 157.09435077 -108.20532227 162.953125 C-108.21491443 164.46167765 -108.22492527 165.97022769 -108.23532104 167.47877502 C-108.2622313 171.55460078 -108.28331551 175.63043795 -108.30332303 179.70630264 C-108.32526875 183.97308657 -108.35261523 188.23983587 -108.37937927 192.5065918 C-108.42919052 200.57760533 -108.47417202 208.6486382 -108.51740164 216.71968937 C-108.57613142 227.63225128 -108.64235578 238.54476758 -108.70815182 249.45728874 C-108.81154543 266.63816171 -108.90495486 283.81907413 -109 301 C-136.06 301 -163.12 301 -191 301 C-191 203.32 -191 105.64 -191 5 C-165.26 5 -139.52 5 -113 5 C-112.67 21.5 -112.34 38 -112 55 C-109.03 50.05 -106.06 45.1 -103 40 C-84.75092483 16.87035821 -62.37530525 2.42484465 -32.94921875 -1.59765625 C-22.53533961 -2.65861525 -10.07026759 -3.35675586 0 0 Z " fill="#88DDED" transform="translate(996,297)"/>
</svg>
